<svg width="31" height="33" viewBox="0 0 31 33" fill="none" xmlns="http://www.w3.org/2000/svg">
<path d="M28.7082 20.2545C26.5357 15.518 24.1552 10.7123 21.7285 5.97582C21.2894 5.09783 20.4574 3.41119 19.7178 2.51011C18.6547 1.21624 17.0831 0.523102 15.4884 0.523102C13.8937 0.523102 12.3221 1.21624 11.259 2.51011C10.5194 3.41119 9.68739 5.09783 9.24828 5.97582C6.82155 10.7123 4.44108 15.518 2.26859 20.2545C1.99125 20.8783 1.32101 22.357 1.06678 23.0271C0.766334 23.8357 0.604553 24.7137 0.604553 25.5917C0.604553 29.404 3.58594 32.4769 7.56114 32.4769C10.843 32.4769 13.4546 30.3744 15.4884 28.1794C17.5222 30.3744 20.1338 32.4769 23.4157 32.4769C27.3909 32.4769 30.3954 29.404 30.3954 25.5917C30.3954 24.7137 30.2105 23.8357 29.91 23.0271C29.6558 22.357 28.9856 20.8783 28.7082 20.2545ZM15.4884 24.5058C13.8475 22.3801 12.3221 19.7462 12.3221 17.6206C12.3221 15.4949 13.8244 14.4321 15.4884 14.4321C17.1524 14.4321 18.6778 15.5643 18.6778 17.6206C18.6778 19.6769 17.1293 22.3801 15.4884 24.5058ZM23.4157 30.0971C20.9853 30.0971 18.9006 28.398 17.0542 26.3565C18.9579 23.9827 21.0583 20.6221 21.0583 17.6206C21.0583 14.0856 18.308 12.0524 15.4884 12.0524C12.6688 12.0524 9.94164 14.0856 9.94164 17.6206C9.94164 20.6214 12.0272 23.9808 13.9242 26.3546C12.0776 28.3971 9.99225 30.0971 7.56114 30.0971C4.92641 30.0971 2.98505 28.087 2.98505 25.5917C2.98505 24.991 3.07749 24.4365 3.2855 23.8588C3.4935 23.3274 4.16374 21.8487 4.44108 21.2711C6.61355 16.5347 8.94783 11.7751 11.3746 7.03863C11.8137 6.16065 12.5532 4.70506 13.1079 4.03502C13.7088 3.29567 14.5408 2.90289 15.4884 2.90289C16.436 2.90289 17.268 3.29567 17.8689 4.03502C18.4236 4.70506 19.1632 6.16065 19.6023 7.03863C22.029 11.7751 24.3632 16.5347 26.5357 21.2711C26.8131 21.8487 27.4833 23.3274 27.6913 23.8588C27.8993 24.4365 28.0149 24.991 28.0149 25.5917C28.0149 28.087 26.0504 30.0971 23.4157 30.0971Z" fill="#FF385C"/>
</svg>
