<svg width="9" height="9" viewBox="0 0 9 9" fill="none" xmlns="http://www.w3.org/2000/svg">
<path fill-rule="evenodd" clip-rule="evenodd" d="M4.60502 0.835008L3.57252 3.05501L1.10752 3.37251C1.05983 3.37847 1.01487 3.39805 0.978019 3.4289C0.941171 3.45976 0.913998 3.50058 0.899753 3.54648C0.885508 3.59238 0.884796 3.64141 0.8977 3.68771C0.910605 3.734 0.93658 3.7756 0.972516 3.80751L2.79752 5.45001L2.30502 7.91251C2.29574 7.95959 2.30021 8.00835 2.31789 8.05296C2.33557 8.09757 2.36572 8.13614 2.40473 8.16409C2.44374 8.19203 2.48997 8.20815 2.5379 8.21053C2.58583 8.21291 2.63343 8.20145 2.67502 8.17751L4.83002 6.92751L6.98752 8.17751C7.0291 8.20145 7.0767 8.21291 7.12463 8.21053C7.17256 8.20815 7.21879 8.19203 7.2578 8.16409C7.29681 8.13614 7.32696 8.09757 7.34464 8.05296C7.36232 8.00835 7.36679 7.95959 7.35752 7.91251L6.86502 5.45001L8.69002 3.80751C8.72523 3.77529 8.75049 3.73367 8.7628 3.68757C8.77512 3.64146 8.77398 3.59279 8.75952 3.5473C8.74506 3.50182 8.71789 3.46143 8.6812 3.4309C8.64452 3.40037 8.59987 3.38097 8.55252 3.37501L6.08752 3.05501L5.05752 0.835008C5.03763 0.791361 5.00561 0.754355 4.96527 0.728406C4.92493 0.702457 4.87798 0.68866 4.83002 0.68866C4.78205 0.68866 4.7351 0.702457 4.69476 0.728406C4.65442 0.754355 4.6224 0.791361 4.60252 0.835008H4.60502Z" fill="#6A6A6A"/>
</svg>
